<svg xmlns="http://www.w3.org/2000/svg" viewBox="0 0 182.04 219.87"><defs><style>.cls-1{fill:#e30613;}.cls-2{fill:#fff;}.cls-3,.cls-4{fill:#936037;}.cls-4{stroke:#b17f4a;stroke-miterlimit:10;stroke-width:4px;}.cls-5{fill:#634e42;}</style></defs><g id="Lag_2" data-name="Lag 2"><g id="Lag_1-2" data-name="Lag 1"><path class="cls-1" d="M14.3,89.06A36.34,36.34,0,0,1,50.64,52.72H81.11a36.34,36.34,0,0,1,36.34,36.34V169.5l30,4.37a37.88,37.88,0,0,1,32,42.94h0a37.89,37.89,0,0,1-42.94,32L46.71,235.74a37.88,37.88,0,0,1-32.36-35.69.34.34,0,0,1,0-.1c0-.53,0-1.06,0-1.59V89.06Z" transform="translate(0 -30.4)"/><rect class="cls-2" y="30.4" width="137.87" height="51.74" rx="7.5" transform="translate(137.87 82.14) rotate(180)"/><path class="cls-3" d="M117.45,169.5c34.16-3.15,60.63,14.95,64.17,35.73,2,12-3.56,24.78-11.92,33-12.31,12.14-31.77,15.49-49.36,8.17a104,104,0,0,1-2.89-76.92Z" transform="translate(0 -30.4)"/><path class="cls-3" d="M57.3,237.28c13.68-24.56-23.67-55-42.95-37.23A38.84,38.84,0,0,0,23,223.61C35.57,238.82,55.33,237.45,57.3,237.28Z" transform="translate(0 -30.4)"/><path class="cls-4" d="M127.83,204.21h0Z" transform="translate(0 -30.4)"/><path class="cls-4" d="M127.83,216.06h0Z" transform="translate(0 -30.4)"/><path class="cls-5" d="M84.38,141.87a93.18,93.18,0,0,1-4,11A66.54,66.54,0,0,1,67,154.64c-17.45,0-26.36-11.6-26.36-24.38,0-14.89,11.32-25.18,27.67-25.18a74.09,74.09,0,0,1,13.8,1.68c.29,3.28.8,7.66,1.39,11.31l-2.27.51c-1.46-4.89-3.21-7.88-6.93-9.41a19.9,19.9,0,0,0-7.67-1.39c-12,0-18.39,8.9-18.39,20.95,0,14.09,7.3,23.14,19.12,23.14,7.45,0,11.1-3.43,14.82-10.73Z" transform="translate(0 -30.4)"/></g></g></svg>