<svg xmlns="http://www.w3.org/2000/svg" xmlns:xlink="http://www.w3.org/1999/xlink" viewBox="0 0 497.77 741.07"><defs><style>.cls-1,.cls-5{fill:none;}.cls-2,.cls-3{fill:#e30613;}.cls-3{stroke:#1d1d1b;stroke-miterlimit:10;stroke-width:12px;}.cls-4{clip-path:url(#clip-path);}.cls-5{stroke:#fff;stroke-linecap:round;stroke-linejoin:round;stroke-width:20px;}</style><clipPath id="clip-path" transform="translate(31.93 51.71)"><path class="cls-1" d="M332.94,670.23c-8.78,2.25-23.27-4.86-28.82-17a29.4,29.4,0,0,1-1.82-17.71l-2-468.76a99.33,99.33,0,0,0-4.09-20.43c-8.32-26.56-25.81-42.38-33.9-49.52-7-6.17-36.57-32.53-78-32.21-65.06.5-104.88,63.29-107.82,68.09-22.95,37.43-18.75,71.54-35,74.06-12.2,1.9-27.23-15.45-32.44-32.29C-2.17,138.11,30.91,100.21,46,83,62.17,64.44,107.1,13,181.79,11.5,247.7,10.17,310.13,48.25,338,104.44,352.69,133.92,354.65,162,354.38,179c1.45,69.67,6.3,320.45,0,424.85C353.1,625.1,349.81,665.9,332.94,670.23Z"/></clipPath></defs><g id="Lag_2" data-name="Lag 2"><g id="Lag_1-2" data-name="Lag 1"><path class="cls-2" d="M329.55,677.23a33,33,0,0,1-33-33V178.28a112.28,112.28,0,1,0-224.55,0,33,33,0,0,1-66,0C6,80,86,0,184.28,0S362.55,80,362.55,178.28v466A33,33,0,0,1,329.55,677.23Z" transform="translate(31.93 51.71)"/><path class="cls-3" d="M329.55,683.36a33,33,0,0,1-33-33v-466A112.28,112.28,0,0,0,72,184.4a33,33,0,0,1-66,0C6,86.1,86,6.13,184.28,6.13s178.27,80,178.27,178.27v466A33,33,0,0,1,329.55,683.36Z" transform="translate(31.93 51.71)"/><g class="cls-4"><polyline class="cls-5" points="232.83 657.55 487.77 565.62 475.73 474.68 232.83 559.62 237.85 424.71 464.69 326.78 456.66 232.85 232.83 317.79 226.81 204.87 438.59 107.93 338.22 10 203.72 163.89 149.52 170.89 100.33 10 10 104.94 137.47 207.86"/></g></g></g></svg>