<svg xmlns="http://www.w3.org/2000/svg" viewBox="0 0 713.87 249.25"><defs><style>.cls-1{fill:#009640;}.cls-2{fill:#063;}.cls-2,.cls-3{stroke:#063;stroke-miterlimit:10;}.cls-3{fill:#e30613;}</style></defs><g id="Lag_2" data-name="Lag 2"><g id="Lag_1-2" data-name="Lag 1"><path class="cls-1" d="M0,16.34A135.48,135.48,0,0,1,44.43,72a134.22,134.22,0,0,1,10.72,53.62c12.62-3.4,25.94-7.43,39.83-12.26,11.36-4,22.09-8.07,32.17-12.25a75.13,75.13,0,0,1,25,23.66c13.79,21.08,12.47,42.83,11.74,49.87a112.9,112.9,0,0,1,81.2-19.92c5.91,2.89,22.8,12.12,32.17,32.17a66.07,66.07,0,0,1,6.12,26.56c6.77-6.7,25.07-22.88,52.09-25a76,76,0,0,1,21.45,1.35A150.66,150.66,0,0,1,337,99.57a172.86,172.86,0,0,1-49,6.13,171.71,171.71,0,0,1-29.11-3.06c-3.24-1-16.65-5.8-24.51-19.92-10.12-18.17-2.48-36.49-1.53-38.65a129.27,129.27,0,0,1-36.76,6.48,129.57,129.57,0,0,1-44.43-6.48Q142.47,22,133.28,0A158,158,0,0,1,85.79,19.91C47.58,29,15.56,21.26,0,16.34Z"/><path class="cls-2" d="M82.37,55.42,318.28,158Z"/><path class="cls-1" d="M713.87,16.34A135.48,135.48,0,0,0,669.45,72a134.09,134.09,0,0,0-10.73,53.62c-12.61-3.4-25.94-7.43-39.83-12.26-11.36-4-22.09-8.07-32.17-12.25a75.22,75.22,0,0,0-25,23.66c-13.79,21.08-12.47,42.83-11.74,49.87a112.89,112.89,0,0,0-81.19-19.92c-5.91,2.89-22.81,12.12-32.17,32.17a65.94,65.94,0,0,0-6.13,26.56c-6.77-6.7-25.07-22.88-52.09-25a75.86,75.86,0,0,0-21.44,1.35,150.74,150.74,0,0,0,19.91-90.21,172.86,172.86,0,0,0,49,6.13A171.59,171.59,0,0,0,455,102.64c3.24-1,16.65-5.8,24.51-19.92C489.61,64.55,482,46.23,481,44.07a129.28,129.28,0,0,0,36.77,6.48,129.54,129.54,0,0,0,44.42-6.48L580.6,0a157.89,157.89,0,0,0,47.49,19.91C666.29,29,698.32,21.26,713.87,16.34Z"/><path class="cls-2" d="M631.51,55.42,395.59,158Z"/><circle class="cls-3" cx="340.15" cy="213.45" r="35.3"/><circle class="cls-3" cx="385.32" cy="213.45" r="35.3"/></g></g></svg>