<svg xmlns="http://www.w3.org/2000/svg" viewBox="0 0 83 591.2"><defs><style>.cls-1{fill:#1d1d1b;stroke:#1d1d1b;stroke-miterlimit:10;}.cls-2{fill:#f9b233;}.cls-3{fill:#f39200;}.cls-4{fill:#be1622;}.cls-5{fill:#dadada;}</style></defs><g id="Lag_2" data-name="Lag 2"><g id="Lag_1-2" data-name="Lag 1"><line class="cls-1" x1="36.9" y1="224.23" x2="37.87" y2="253.15"/><path class="cls-2" d="M71.41,117.13C55.68,173.29,82.14,231.31,37.07,229.31,11.21,228.16-.53,176.74,2.25,114.07s46,2,44.87-111.71C47-13.85,88.33,56.72,71.41,117.13Z"/><path class="cls-3" d="M77.77,135.53c-16.31,46.91,3.63,97.55-35.08,93.56-22.22-2.29-29.8-46.58-24.33-99.68s39.47,4.06,44.13-92.64C63.16,23,95.3,85.06,77.77,135.53Z"/><path class="cls-4" d="M63.22,172.44c-5.42,25,6.47,49.9-12,49.9-10.61,0-16.35-22.34-16.35-49.9s18.85,0,16.35-49.9C50.84,115.43,69.06,145.6,63.22,172.44Z"/><path class="cls-5" d="M77.32,591.2H3.69s-8.31-404,0-375,73.63,36.85,73.63,36.85Z"/></g></g></svg>