<svg xmlns="http://www.w3.org/2000/svg" viewBox="0 0 182.04 219.87"><defs><style>.cls-1{fill:#e30613;}.cls-2{fill:#fff;}.cls-3,.cls-4{fill:#936037;}.cls-4{stroke:#b17f4a;stroke-miterlimit:10;stroke-width:4px;}.cls-5{fill:#634e42;}</style></defs><g id="Lag_2" data-name="Lag 2"><g id="Lag_1-2" data-name="Lag 1"><path class="cls-1" d="M167.74,58.66A36.34,36.34,0,0,0,131.4,22.32H100.93A36.34,36.34,0,0,0,64.59,58.66v80.45l-30,4.36a37.88,37.88,0,0,0-32,42.94h0a37.87,37.87,0,0,0,42.94,32l89.78-13.09a37.88,37.88,0,0,0,32.36-35.69v-.1c0-.53,0-1.06.05-1.59V58.66Z"/><rect class="cls-2" x="44.17" width="137.87" height="51.74" rx="7.5"/><path class="cls-3" d="M64.59,139.11C30.43,136,4,154.06.42,174.83c-2,12,3.56,24.78,11.92,33C24.65,220,44.11,223.35,61.7,216a105.33,105.33,0,0,0,8.85-45.27A104.17,104.17,0,0,0,64.59,139.11Z"/><path class="cls-3" d="M124.73,206.88c-13.67-24.56,23.68-55,43-37.23a38.89,38.89,0,0,1-8.63,23.57C146.47,208.42,126.71,207.05,124.73,206.88Z"/><path class="cls-4" d="M54.21,173.81h0Z"/><path class="cls-4" d="M54.21,185.66h0Z"/><path class="cls-4" d="M129.51,162.5l13.08,13.71Z"/><path class="cls-4" d="M123,169.35l13.08,13.71Z"/><path class="cls-5" d="M123.9,73.74c-5.7.65-6.28,1.09-6.28,7.22v27c0,9.64-1.53,14.68-6.43,19.06a24,24,0,0,1-6.78,4.23l-1.17-2.19a12.94,12.94,0,0,0,7.3-9.64c.65-3.5.73-7.73.73-13.86V81c0-6.13-.66-6.64-6.65-7.22v-2H123.9Z"/></g></g></svg>