<svg xmlns="http://www.w3.org/2000/svg" viewBox="0 0 182.04 219.87"><defs><style>.cls-1{fill:#e30613;}.cls-2{fill:#fff;}.cls-3,.cls-4{fill:#936037;}.cls-4{stroke:#b17f4a;stroke-miterlimit:10;stroke-width:4px;}.cls-5{fill:#634e42;}</style></defs><g id="Lag_2" data-name="Lag 2"><g id="Lag_1-2" data-name="Lag 1"><path class="cls-1" d="M14.3,89.06A36.34,36.34,0,0,1,50.64,52.72H81.11a36.34,36.34,0,0,1,36.34,36.34V169.5l30,4.37a37.88,37.88,0,0,1,32,42.94h0a37.89,37.89,0,0,1-42.94,32L46.71,235.74a37.88,37.88,0,0,1-32.36-35.69.34.34,0,0,1,0-.1c0-.53,0-1.06,0-1.59V89.06Z" transform="translate(0 -30.4)"/><rect class="cls-2" y="30.4" width="137.87" height="51.74" rx="7.5" transform="translate(137.87 82.14) rotate(180)"/><path class="cls-3" d="M117.45,169.5c34.16-3.15,60.63,14.95,64.17,35.73,2,12-3.56,24.78-11.92,33-12.31,12.14-31.77,15.49-49.36,8.17a104,104,0,0,1-2.89-76.92Z" transform="translate(0 -30.4)"/><path class="cls-3" d="M57.3,237.28c13.68-24.56-23.67-55-42.95-37.23A38.84,38.84,0,0,0,23,223.61C35.57,238.82,55.33,237.45,57.3,237.28Z" transform="translate(0 -30.4)"/><path class="cls-4" d="M127.83,204.21h0Z" transform="translate(0 -30.4)"/><path class="cls-4" d="M127.83,216.06h0Z" transform="translate(0 -30.4)"/><path class="cls-5" d="M48.19,102.09H67.68v2c-5.7.51-6.72,1-6.72,7.52v12.55c1.46-.15,3.14-1.31,5.26-3.36,4.09-3.87,9-8.83,12.34-12.63,2.19-2.48,2-3.43-1.17-3.86l-2-.22v-2H93.08v2c-5.47.65-7.37,1-12.26,6.06-2.19,2.11-7.89,7.66-12.56,12.26,5.55,6.57,13.65,15.91,17.45,19.93s4.67,4.6,9.2,5.11v2H83.23c-5.62-6.35-11.54-13.43-18.18-21.17-1.68-2-2.92-2.19-4.09-2.12v13.87c0,6.36.66,6.87,6.72,7.38v2H48.19v-2c6-.51,6.57-1,6.57-7.38V111.66c0-6.58-.51-7.09-6.57-7.52Z" transform="translate(0 -30.4)"/></g></g></svg>