<svg xmlns="http://www.w3.org/2000/svg" viewBox="0 0 121.53 219.89"><defs><style>.cls-1{fill:#7d4e24;}.cls-2{fill:#f9b233;}.cls-3{fill:#f39200;}</style></defs><g id="Lag_2" data-name="Lag 2"><g id="Lag_1-2" data-name="Lag 1"><path class="cls-1" d="M60.5,95.45C35.9,53.73,33.12,17.68,48.22,5.37c7.34-6,20.33-7.53,27.62-1.74C96.28,19.87,64.17,87.82,60.5,95.45Z"/><path class="cls-2" d="M0,190.78c1.67-57.26,30.88-103,60.77-105.16,25-1.79,50.52,27,60.76,105.16Z"/><path class="cls-2" d="M39.22,188.7c-2.29,17.69,9.5,30.89,19.14,31.18s22.45-12.43,20.89-30.46Z"/><path class="cls-3" d="M0,190.78c5.25-4.67,30.16-25.83,66.55-23.49,29.26,1.89,48.71,17.86,55,23.49"/></g></g></svg>