<svg xmlns="http://www.w3.org/2000/svg" viewBox="0 0 412.51 368.68"><defs><style>.cls-1{fill:#fff;}.cls-2{fill:#e30613;}</style></defs><g id="Lag_2" data-name="Lag 2"><g id="Lag_1-2" data-name="Lag 1"><rect class="cls-1" y="278.81" width="221.67" height="89.87"/><path class="cls-2" d="M0,278.81A676.13,676.13,0,0,1,45.34,108.26,669.37,669.37,0,0,1,81.08,34.72c6.27-6.63,28.6-28.64,65.36-33.7C185-4.29,213.57,12.63,221,17.36L359.89,155.23,212.53,106.17q.67,10.72,1.32,21.49,4.56,76.07,7.82,151.15Z"/><polygon class="cls-1" points="371.7 121.52 378.33 144.02 396.92 129.71 389.06 151.82 412.51 151.17 393.16 164.43 412.51 177.68 389.06 177.03 396.92 199.14 378.33 184.83 371.7 207.33 365.07 184.83 346.48 199.14 354.35 177.03 330.9 177.68 350.25 164.43 330.9 151.17 354.35 151.82 346.48 129.71 365.07 144.02 371.7 121.52"/></g></g></svg>