<svg xmlns="http://www.w3.org/2000/svg" viewBox="0 0 182.04 219.87"><defs><style>.cls-1{fill:#e30613;}.cls-2{fill:#fff;}.cls-3,.cls-4{fill:#936037;}.cls-4{stroke:#b17f4a;stroke-miterlimit:10;stroke-width:4px;}.cls-5{fill:#634e42;}</style></defs><g id="Lag_2" data-name="Lag 2"><g id="Lag_1-2" data-name="Lag 1"><path class="cls-1" d="M14.3,58.66A36.34,36.34,0,0,1,50.64,22.32H81.11a36.34,36.34,0,0,1,36.34,36.34v80.45l30,4.36a37.89,37.89,0,0,1,32,42.94h0a37.88,37.88,0,0,1-42.94,32L46.71,205.34a37.88,37.88,0,0,1-32.36-35.69.31.31,0,0,1,0-.1c0-.53,0-1.06,0-1.59V58.66Z"/><rect class="cls-2" width="137.87" height="51.74" rx="7.5" transform="translate(137.87 51.74) rotate(180)"/><path class="cls-3" d="M117.45,139.11c34.16-3.16,60.63,14.95,64.17,35.72,2,12-3.56,24.78-11.92,33-12.31,12.14-31.77,15.5-49.36,8.17a105,105,0,0,1-8.85-45.27A103.86,103.86,0,0,1,117.45,139.11Z"/><path class="cls-3" d="M57.3,206.88c13.68-24.56-23.67-55-42.95-37.23A38.89,38.89,0,0,0,23,193.22C35.57,208.42,55.33,207.05,57.3,206.88Z"/><path class="cls-4" d="M127.83,173.81h0Z"/><path class="cls-4" d="M127.83,185.66h0Z"/><path class="cls-4" d="M52.53,162.5,39.45,176.21Z"/><path class="cls-4" d="M59.07,169.35,46,183.06Z"/><path class="cls-5" d="M91.48,119.73c-1,0-1.76-.08-2.7-.15-5.33-.36-8.18-1.75-11.39-6.28-2.7-3.72-5.33-8.32-7.67-12-1.46-2.34-2.41-2.78-6.13-2.78H61v11.46c0,6.21.8,6.57,6.64,7.16v2H48.19v-2c6.06-.66,6.57-.95,6.57-7.16V80.82c0-6.21-.8-6.43-6.57-7.08v-2H66.8c5.33,0,8.91.66,11.68,2.49a10.88,10.88,0,0,1,5,9.63c0,6.28-4,10.22-9.42,12.56,1.31,2.26,4.45,7.15,6.64,10.44a68.11,68.11,0,0,0,5.77,7.52,10.47,10.47,0,0,0,5.33,3.35ZM64.54,96c3.8,0,6.2-.58,8-2.11,2.85-2.12,4-5,4-9,0-7.81-5.18-10.66-10.8-10.66-2.12,0-3.36.29-3.87.73S61,76.22,61,78.12V96Z"/></g></g></svg>