<svg xmlns="http://www.w3.org/2000/svg" viewBox="0 0 256.72 528.89"><defs><style>.cls-1{fill:#8f5022;}.cls-2{fill:#76421b;}.cls-3{fill:#8a5021;}.cls-4{fill:#d19763;}.cls-5{fill:#e62d3e;}.cls-6{fill:#e31f31;}.cls-7{fill:#1d1d1b;}.cls-8{fill:#fff;}</style></defs><g id="Lag_2" data-name="Lag 2"><g id="Lag_1-2" data-name="Lag 1"><path class="cls-1" d="M72.92,118.05a1.08,1.08,0,0,0-.5-.15l-8.79-.48h-.24l-13.8,2.06L37,121.61a3.16,3.16,0,0,1-2.33-2.19,3.19,3.19,0,0,1,1.7-3.58l10.16-5.21a1.42,1.42,0,0,1,.33-.11l10.78-1.82a1.15,1.15,0,0,0,.52-2l-3.56-2.8a1.58,1.58,0,0,0-.24-.15l-9.11-4-.12,0-6.79-2.15a1.37,1.37,0,0,0-.28,0l-10.57-.58a1.23,1.23,0,0,0-.27,0L15.13,99.15l-7.5,1.49A1.15,1.15,0,0,1,6.36,99L9,93.34a1.16,1.16,0,0,1,.64-.59l9.25-3.44a1.31,1.31,0,0,1,.27-.06l12-1.4h.19L36,88.1A1.15,1.15,0,0,0,37,86.19L25,72.46l0,0-7.4-9.59-6.11-8.67a1.3,1.3,0,0,1-.16-.31L6,37.7A1.42,1.42,0,0,1,6,37.28l.59-10.63L7.13,16a1.44,1.44,0,0,1,.09-.4l4.17-9.49a1,1,0,0,1,.13-.23L15.59.46a1.15,1.15,0,0,1,1-.46l1.77.1a1.15,1.15,0,0,1,1.08,1l.73,5.54a1.2,1.2,0,0,1,0,.5l-2.92,9.42a1.51,1.51,0,0,0-.05.42l.46,6.47v.08l0,7.87a.22.22,0,0,0,0,.08l.21,3.14a1.11,1.11,0,0,0,.12.44l3.29,6.62,1.84,4.25,0,.08,2.19,4.14a1.88,1.88,0,0,0,.16.23L26,51a1.16,1.16,0,0,0,2-.64l2.09-18.14a.65.65,0,0,1,0-.2l5.36-17.7a1.16,1.16,0,0,1,1-.81l3.11-.35a1.16,1.16,0,0,1,1.28,1.06l.62,8.29a1.16,1.16,0,0,1,0,.37l-2.1,8.45s0,.05,0,.07c-.11.33-.21.66-.31,1L37.61,48.68a37.68,37.68,0,0,0-.39,7.86c.17,2.94,1,11.63,1,12.27a1,1,0,0,0,0,.31,1.2,1.2,0,0,0,.28.59l6.75,7.52a9.24,9.24,0,0,0,4.62,2.36,1.15,1.15,0,0,0,1.1-.39l5.14-6.13a1.11,1.11,0,0,0,.23-.41L60.42,59a.5.5,0,0,1,0-.13l6-13.8a1.2,1.2,0,0,1,.65-.62l2.32-.88a1.15,1.15,0,0,1,1.48.67l1,2.5a1.19,1.19,0,0,1,.07.56l-1.35,9.86a1.69,1.69,0,0,1,0,.24l-3.39,9.35,0,.16-1.66,8.06c-.87,2.18-1.49,4-1.9,5.22-.81,2.45-1.48,4.83-1.6,4.8s0-.26,0-.47a5.47,5.47,0,0,0,1.79,2.79,1.09,1.09,0,0,1,.25.27l6,9a1.15,1.15,0,0,0,.14.17l8.23,8.31a.12.12,0,0,0,0,0l6.12,5.46a1.1,1.1,0,0,0,.55.27l10.44,2a1.16,1.16,0,0,1,.49,2l-11.38,8.82Z"/><path class="cls-2" d="M67,118.05a1.16,1.16,0,0,0-.5-.15l-8.8-.48h-.23l-13.81,2.06-12.54,2.12a3.16,3.16,0,0,1-2.33-2.19,3.2,3.2,0,0,1,1.69-3.58l10.17-5.21a1.17,1.17,0,0,1,.33-.11l10.77-1.82a1.15,1.15,0,0,0,.52-2l-3.55-2.8a1.28,1.28,0,0,0-.25-.15l-9.1-4-.12,0-6.79-2.15a1.47,1.47,0,0,0-.29,0l-10.56-.58a1.32,1.32,0,0,0-.28,0L9.17,99.15l-7.5,1.49A1.15,1.15,0,0,1,.4,99L3,93.34a1.14,1.14,0,0,1,.65-.59l9.25-3.44a1.07,1.07,0,0,1,.27-.06l12-1.4h.2l4.68.25A1.16,1.16,0,0,0,31,86.19L19,72.46l0,0-7.4-9.59L5.46,54.15a1.77,1.77,0,0,1-.15-.31L.06,37.7A1,1,0,0,1,0,37.28L.58,26.65,1.17,16a1.16,1.16,0,0,1,.09-.4L5.43,6.12a1,1,0,0,1,.13-.23L9.62.46a1.18,1.18,0,0,1,1-.46l1.77.1a1.16,1.16,0,0,1,1.08,1l.73,5.54a1.2,1.2,0,0,1,0,.5l-2.91,9.42a1.21,1.21,0,0,0-.05.42l.45,6.47a.22.22,0,0,1,0,.08l0,7.87v.08l.22,3.14a1.29,1.29,0,0,0,.11.44l3.29,6.62,1.84,4.25a.2.2,0,0,1,0,.08l2.19,4.14a1.19,1.19,0,0,0,.16.23L20,51a1.16,1.16,0,0,0,2-.64l2.08-18.14a1.17,1.17,0,0,1,.05-.2l5.36-17.7a1.16,1.16,0,0,1,1-.81l3.11-.35a1.15,1.15,0,0,1,1.27,1.06l.63,8.29a1.16,1.16,0,0,1,0,.37l-2.1,8.45a.64.64,0,0,1,0,.07l-.3,1c-.4,4.58-1,11.7-1.43,16.28a37.55,37.55,0,0,0-.38,7.86c.16,2.94,1,11.63.94,12.27a1.18,1.18,0,0,0,.29.9l6.75,7.52a9.2,9.2,0,0,0,4.62,2.36A1.15,1.15,0,0,0,45,79.2l5.14-6.13a1.09,1.09,0,0,0,.22-.41L54.45,59c0-.05,0-.09,0-.13l6-13.8a1.2,1.2,0,0,1,.65-.62l2.31-.88A1.17,1.17,0,0,1,65,44.2l1,2.5a1.07,1.07,0,0,1,.06.56l-1.34,9.86a.94.94,0,0,1-.06.24l-3.38,9.35a.94.94,0,0,0,0,.16l-1.67,8.06c-.86,2.18-1.48,4-1.89,5.22C56.77,82.6,56.1,85,56,85s0-.26,0-.47a5.49,5.49,0,0,0,1.78,2.79,1,1,0,0,1,.26.27l6,9a1.15,1.15,0,0,0,.14.17l8.22,8.31.06,0,6.12,5.46a1.11,1.11,0,0,0,.54.27l10.45,2a1.16,1.16,0,0,1,.48,2L78.7,123.74Z"/><path class="cls-1" d="M180.54,118.05a1.08,1.08,0,0,1,.49-.15l8.8-.48h.23l13.81,2.06,12.54,2.12a3.14,3.14,0,0,0,2.33-2.19,3.19,3.19,0,0,0-1.69-3.58l-10.17-5.21a1.21,1.21,0,0,0-.32-.11l-10.78-1.82a1.15,1.15,0,0,1-.52-2l3.55-2.8a1.28,1.28,0,0,1,.25-.15l9.1-4,.12,0,6.8-2.15a1.26,1.26,0,0,1,.28,0l10.56-.58a1.32,1.32,0,0,1,.28,0l12.12,2.29,7.5,1.49A1.16,1.16,0,0,0,247.1,99l-2.64-5.68a1.14,1.14,0,0,0-.65-.59l-9.25-3.44a1.1,1.1,0,0,0-.26-.06l-12-1.4h-.2l-4.68.25a1.15,1.15,0,0,1-.93-1.91l12-13.73,0,0,7.41-9.59L242,54.15a1.27,1.27,0,0,0,.15-.31l5.26-16.14a1.16,1.16,0,0,0,.05-.42l-.58-10.63L246.33,16a1.18,1.18,0,0,0-.1-.4l-4.16-9.49a1.09,1.09,0,0,0-.14-.23L237.87.46a1.15,1.15,0,0,0-1-.46l-1.76.1a1.14,1.14,0,0,0-1.08,1l-.73,5.54a1.06,1.06,0,0,0,0,.5l2.91,9.42a1.21,1.21,0,0,1,.05.42l-.45,6.47v8l-.21,3.14a1.11,1.11,0,0,1-.12.44l-3.29,6.62-1.84,4.25a.59.59,0,0,0,0,.08l-2.19,4.14a1.19,1.19,0,0,1-.16.23l-.56.63a1.15,1.15,0,0,1-2-.64l-2.09-18.14a1.18,1.18,0,0,0,0-.2L218,14.33a1.15,1.15,0,0,0-1-.81l-3.1-.35a1.16,1.16,0,0,0-1.28,1.06L212,22.52a1.16,1.16,0,0,0,0,.37l2.09,8.45a.64.64,0,0,0,0,.07l.3,1c.41,4.58,1,11.7,1.43,16.28a37.55,37.55,0,0,1,.38,7.86c-.16,2.94-1,11.63-.94,12.27a1.18,1.18,0,0,1-.29.9l-6.75,7.52a9.2,9.2,0,0,1-4.62,2.36,1.13,1.13,0,0,1-1.09-.39l-5.15-6.13a1.09,1.09,0,0,1-.22-.41L193,59a.5.5,0,0,0,0-.13L187,45a1.16,1.16,0,0,0-.65-.62L184,43.53a1.17,1.17,0,0,0-1.49.67l-.95,2.5a1.07,1.07,0,0,0-.06.56l1.34,9.86a.94.94,0,0,0,.06.24l3.38,9.35c0,.05,0,.11.05.16L188,74.93c.86,2.18,1.48,4,1.89,5.22.81,2.45,1.49,4.83,1.61,4.8a1.41,1.41,0,0,0,0-.47,5.49,5.49,0,0,1-1.78,2.79.81.81,0,0,0-.25.27l-6,9a1.15,1.15,0,0,1-.14.17l-8.22,8.31,0,0-6.12,5.46a1.19,1.19,0,0,1-.55.27l-10.45,2a1.16,1.16,0,0,0-.48,2l11.37,8.82Z"/><path class="cls-2" d="M186.5,118.05a1.08,1.08,0,0,1,.49-.15l8.8-.48H196l13.81,2.06,12.54,2.12a3.14,3.14,0,0,0,2.33-2.19,3.19,3.19,0,0,0-1.69-3.58l-10.17-5.21a1.21,1.21,0,0,0-.32-.11l-10.78-1.82a1.15,1.15,0,0,1-.52-2l3.56-2.8a1,1,0,0,1,.24-.15l9.1-4,.13,0L221,97.47a1.37,1.37,0,0,1,.28,0l10.56-.58a1.27,1.27,0,0,1,.28,0l12.13,2.29,7.5,1.49A1.16,1.16,0,0,0,253.06,99l-2.64-5.68a1.16,1.16,0,0,0-.64-.59l-9.25-3.44a1.31,1.31,0,0,0-.27-.06l-12-1.4h-.19l-4.69.25a1.15,1.15,0,0,1-.93-1.91l12-13.73,0,0,7.4-9.59L248,54.15a1.3,1.3,0,0,0,.16-.31L253.4,37.7a1.16,1.16,0,0,0,0-.42l-.58-10.63L252.29,16a1.18,1.18,0,0,0-.1-.4L248,6.12a1.71,1.71,0,0,0-.13-.23L243.83.46a1.15,1.15,0,0,0-1-.46l-1.76.1a1.14,1.14,0,0,0-1.08,1l-.73,5.54a1.2,1.2,0,0,0,0,.5l2.91,9.42a1,1,0,0,1,.05.42l-.45,6.47v.08l0,7.87s0,.05,0,.08l-.21,3.14a1.11,1.11,0,0,1-.12.44l-3.29,6.62-1.84,4.25,0,.08-2.18,4.14a1.24,1.24,0,0,1-.17.23l-.56.63a1.15,1.15,0,0,1-2-.64l-2.09-18.14a1.18,1.18,0,0,0,0-.2l-5.37-17.7a1.14,1.14,0,0,0-1-.81l-3.11-.35a1.16,1.16,0,0,0-1.28,1.06l-.62,8.29a1.16,1.16,0,0,0,0,.37l2.09,8.45a.25.25,0,0,1,0,.07c.1.33.21.66.31,1l1.42,16.28a38.39,38.39,0,0,1,.39,7.86c-.17,2.94-1,11.63-.95,12.27a1.42,1.42,0,0,1,0,.31,1.13,1.13,0,0,1-.29.59l-6.75,7.52a9.22,9.22,0,0,1-4.61,2.36,1.15,1.15,0,0,1-1.1-.39l-5.15-6.13a1.25,1.25,0,0,1-.22-.41L199,59c0-.05,0-.09,0-.13L193,45a1.15,1.15,0,0,0-.64-.62L190,43.53a1.17,1.17,0,0,0-1.49.67l-.95,2.5a1.18,1.18,0,0,0-.06.56l1.34,9.86a.94.94,0,0,0,.06.24l3.38,9.35a1,1,0,0,1,0,.16L194,74.93c.86,2.18,1.49,4,1.89,5.22.82,2.45,1.49,4.83,1.61,4.8s0-.26,0-.47a5.41,5.41,0,0,1-1.78,2.79.93.93,0,0,0-.25.27l-6,9a.75.75,0,0,1-.14.17L181,105.05s0,0-.05,0l-6.12,5.46a1.14,1.14,0,0,1-.55.27l-10.44,2a1.16,1.16,0,0,0-.49,2l11.38,8.82Z"/><path class="cls-3" d="M84.9,289.48A69.85,69.85,0,0,0,79,294c-7.59,6.48-20.82,20.61-31.5,68.09-3.17,14-5.6,24.24-6.51,39-1.46,23.6-2.5,40.4,7.68,55,10.52,15.07,27.87,20.34,38.13,22.32,16.43,5.07,50.79,13,89.12.11C189.68,473.83,198,471,205.8,463c33-34.09,5.74-111.11-14.17-148.86a233.6,233.6,0,0,0-16.22-26.35,157,157,0,0,1-90.51,1.68Z"/><path class="cls-4" d="M101.77,110.61a15.63,15.63,0,0,0-4.48,1.72,75.78,75.78,0,0,0-12.8,9.16C66.8,137.23,62,156.78,55.64,182.59c-8.43,34.31-6.75,61-5.38,73.62.4,3.72.87,7.09,1.34,10a15.85,15.85,0,0,0,6.13,10.21,105.5,105.5,0,0,0,67.55,21.08,16.86,16.86,0,0,1,1.88,0c13.54,1,39.92.76,63.69-15.67a86.28,86.28,0,0,0,9.36-7.51,16,16,0,0,0,4.29-6.59,81.83,81.83,0,0,0,3.68-15.65,84.41,84.41,0,0,0,.64-13.72c-2.72-83.34-35.8-115-35.8-115a94.77,94.77,0,0,0-13.38-10.65,15.39,15.39,0,0,0-5.35-2.24,125.6,125.6,0,0,0-52.52.12Z"/><ellipse class="cls-5" cx="129" cy="246.54" rx="45.12" ry="27.58"/><path class="cls-6" d="M174.55,246.52c.28,11.76-13.1,19.29-18,22-10.15,5.69-19.87,5.66-27.16,5.55-18.54-.27-34.86-7.61-34.39-9.73.88-3.91,55.2,12.76,64.76-3.92,6.63-11.57-12.64-31.62-8.41-35C155,222.49,174.22,232.58,174.55,246.52Z"/><circle class="cls-7" cx="159.98" cy="178.76" r="7.8"/><circle class="cls-8" cx="161.43" cy="177.61" r="3.02"/><circle class="cls-7" cx="96.58" cy="179.92" r="7.8"/><circle class="cls-8" cx="98.04" cy="178.76" r="3.02"/><path class="cls-4" d="M72.84,134.5a49.31,49.31,0,0,0-6.06-3.13c-19.37-8.36-39.43-2-49.1,1.88,1.87,3.14,9.7,15.53,25.49,20.06a43,43,0,0,0,21.73.41Z"/><path class="cls-3" d="M70.75,138.94a104.13,104.13,0,0,0-43.66-4.81A36.31,36.31,0,0,0,29.87,137c7.41,6.77,15.73,8.84,20.74,10a59.81,59.81,0,0,0,16,1.55Q68.66,143.75,70.75,138.94Z"/><path class="cls-4" d="M181.29,134.5a49.31,49.31,0,0,1,6.06-3.13c19.36-8.36,39.42-2,49.09,1.88-1.86,3.14-9.69,15.53-25.48,20.06a43,43,0,0,1-21.73.41Q185.26,144.12,181.29,134.5Z"/><path class="cls-3" d="M183.38,138.94A104.13,104.13,0,0,1,227,134.13a38.24,38.24,0,0,1-2.78,2.84c-7.41,6.77-15.73,8.84-20.74,10a59.81,59.81,0,0,1-16,1.55Z"/><polygon class="cls-3" points="87.15 477.91 97.18 513.43 108.88 513.43 110.97 484.6 87.15 477.91"/><polygon class="cls-3" points="179.49 477.91 169.46 513.43 157.76 513.43 155.67 484.6 179.49 477.91"/><path class="cls-4" d="M65.28,471c-5.1-30.61-9.33-87.08,22-134.42,8.1-12.25,21.1-31.34,40.42-32.41,21.73-1.21,38.58,21.1,46.79,32,35.13,46.53,29.56,106.15,25.07,133.3A155.74,155.74,0,0,1,65.28,471Z"/><path class="cls-7" d="M149.13,528.47c-2.93-15.88,7.79-19.7,15.88-19.22,7.7.46,17.13,6.27,13.78,19.64Z"/><path class="cls-7" d="M87.64,528.47c-2.92-15.88,7.79-19.7,15.88-19.22,7.7.46,17.13,6.27,13.79,19.64Z"/><path class="cls-3" d="M202.89,345.05a58.61,58.61,0,0,1,23,26.32,57,57,0,0,1,4.59,21.31c.42-.35,6.62-5.34,12.95-2.93a10.87,10.87,0,0,1,4.18,2.93,72.52,72.52,0,0,0-15.46-43.46,141.07,141.07,0,0,0-40.94-33.84Z"/><path class="cls-7" d="M233.68,421.29c-6.27-4.87-9.37-12.91-7.85-20.14,2.49-11.79,16.39-17.33,23.67-13.16s10.74,19.44,2.3,33.3l-9.2-9.07Z"/><path class="cls-3" d="M52.23,343.8A58.41,58.41,0,0,1,31.29,316a56.55,56.55,0,0,1-3-21.49c-.44.31-7,4.83-13.08,2a10.81,10.81,0,0,1-3.94-3.21,72.32,72.32,0,0,0,12.25,44.27,140.35,140.35,0,0,0,38.25,36.55Q57,359,52.23,343.8Z"/><path class="cls-7" d="M32.46,264.19c5.66,5.57,7.8,13.91,5.45,20.92-3.85,11.41-18.29,15.3-25,10.31s-8.41-20.56,1.59-33.34l8.08,10.08Z"/></g></g></svg>