<svg xmlns="http://www.w3.org/2000/svg" viewBox="0 0 839.95 946.68"><defs><style>.cls-1{fill:#936037;}.cls-2{fill:#ca9e67;stroke:#b17f4a;stroke-miterlimit:10;stroke-width:14px;}.cls-3{fill:#fff;}.cls-4{fill:#f39200;}</style></defs><g id="Lag_2" data-name="Lag 2"><g id="Lag_1-2" data-name="Lag 1"><rect class="cls-1" x="598.72" y="-2.73" width="26.55" height="575.56" transform="translate(65.37 -111.18) rotate(10.96)"/><path class="cls-2" d="M819.19,533.58c0,224.29-181.81,406.1-406.09,406.1S7,757.87,7,533.58a2946.59,2946.59,0,0,0,405.84,28.11A2947.11,2947.11,0,0,0,819.19,533.58Z"/><path class="cls-3" d="M.27,524.76C21.28,373.87,54.4,335.86,82,330.88,150.28,318.53,252.73,497,250.27,498.94c-.91.73-24.3-16.68-26.24-38.77C218.8,400.76,367.9,298.4,469,344.54c35.37,16.14,56.33,46.55,68.13,69.45,85-96.74,169.73-133.95,228.11-107.5,22.72,10.3,36.84,30,44,40,52.05,72.77,23.17,163.56,18.19,178.41a2340.79,2340.79,0,0,1-396.2,36.71A2341,2341,0,0,1,.27,524.76Z"/><ellipse class="cls-4" cx="409.61" cy="362.44" rx="80.17" ry="42.3"/><path class="cls-4" d="M116.67,466.15c3.22,0,3.23-5,0-5s-3.22,5,0,5Z"/><path class="cls-4" d="M345.44,511.08c3.22,0,3.22-5,0-5s-3.22,5,0,5Z"/><path class="cls-4" d="M135.06,431.42c3.21,0,3.22-5,0-5s-3.23,5,0,5Z"/><path class="cls-4" d="M220.84,451.85c3.22,0,3.23-5,0-5s-3.22,5,0,5Z"/><path class="cls-4" d="M318.89,437.55c3.21,0,3.22-5,0-5s-3.23,5,0,5Z"/><path class="cls-4" d="M269.87,486.57c3.21,0,3.22-5,0-5s-3.23,5,0,5Z"/><path class="cls-4" d="M224.93,498.83c3.22,0,3.22-5,0-5s-3.22,5,0,5Z"/><path class="cls-4" d="M231.06,521.29c3.21,0,3.22-5,0-5s-3.23,5,0,5Z"/><path class="cls-4" d="M394.46,527.42c3.22,0,3.22-5,0-5s-3.22,5,0,5Z"/><path class="cls-4" d="M412.84,439.59c3.22,0,3.23-5,0-5s-3.22,5,0,5Z"/><path class="cls-4" d="M359.74,443.68c3.22,0,3.22-5,0-5s-3.22,5,0,5Z"/><path class="cls-4" d="M386.29,460c3.22,0,3.22-5,0-5s-3.22,5,0,5Z"/><path class="cls-4" d="M439.4,484.53c3.21,0,3.22-5,0-5s-3.23,5,0,5Z"/><path class="cls-4" d="M451.65,439.59c3.22,0,3.23-5,0-5s-3.22,5,0,5Z"/><path class="cls-4" d="M490.46,421.21c3.22,0,3.22-5,0-5s-3.22,5,0,5Z"/><path class="cls-4" d="M537.44,492.7c3.22,0,3.22-5,0-5s-3.22,5,0,5Z"/><path class="cls-4" d="M625.27,505c3.22,0,3.22-5,0-5s-3.22,5,0,5Z"/><path class="cls-4" d="M602.8,474.32c3.22,0,3.22-5,0-5s-3.22,5,0,5Z"/><path class="cls-4" d="M535.4,455.93c3.21,0,3.22-5,0-5s-3.23,5,0,5Z"/><path class="cls-4" d="M496.59,455.93c3.22,0,3.22-5,0-5s-3.22,5,0,5Z"/><path class="cls-4" d="M500.67,500.87c3.22,0,3.23-5,0-5s-3.22,5,0,5Z"/><path class="cls-4" d="M568.08,470.23c3.22,0,3.22-5,0-5s-3.22,5,0,5Z"/><path class="cls-4" d="M596.67,411c3.22,0,3.23-5,0-5s-3.22,5,0,5Z"/><path class="cls-4" d="M592.59,380.36c3.22,0,3.22-5,0-5s-3.22,5,0,5Z"/><path class="cls-4" d="M680.42,370.15c3.22,0,3.22-5,0-5s-3.22,5,0,5Z"/><path class="cls-4" d="M680.42,429.38c3.22,0,3.22-5,0-5s-3.22,5,0,5Z"/><path class="cls-4" d="M666.12,423.25c3.22,0,3.22-5,0-5s-3.22,5,0,5Z"/><path class="cls-4" d="M643.65,390.57c3.22,0,3.23-5,0-5s-3.22,5,0,5Z"/><path class="cls-4" d="M664.08,341.55c3.22,0,3.22-5,0-5s-3.22,5,0,5Z"/><path class="cls-4" d="M751.91,333.38c3.22,0,3.22-5,0-5s-3.22,5,0,5Z"/><path class="cls-4" d="M729.44,378.32c3.22,0,3.22-5,0-5s-3.22,5,0,5Z"/><path class="cls-4" d="M711.06,347.68c3.21,0,3.22-5,0-5s-3.23,5,0,5Z"/><path class="cls-4" d="M190.21,453.89c3.21,0,3.22-5,0-5s-3.23,5,0,5Z"/><path class="cls-4" d="M131,372.19c3.22,0,3.22-5,0-5s-3.22,5,0,5Z"/><path class="cls-4" d="M84,366.06c3.22,0,3.23-5,0-5s-3.22,5,0,5Z"/><path class="cls-4" d="M108.5,404.87c3.22,0,3.23-5,0-5s-3.22,5,0,5Z"/><path class="cls-4" d="M159.57,398.74c3.21,0,3.22-5,0-5s-3.22,5,0,5Z"/><path class="cls-4" d="M173.87,451.85c3.21,0,3.22-5,0-5s-3.23,5,0,5Z"/></g></g></svg>