<svg xmlns="http://www.w3.org/2000/svg" viewBox="0 0 463.9 666.34"><defs><style>.cls-1{fill:none;stroke:#1d1d1b;stroke-miterlimit:10;stroke-width:5px;}.cls-2{fill:#fff;}.cls-3{fill:#1d1d1b;}.cls-4{fill:#e94e1b;}</style></defs><g id="Lag_2" data-name="Lag 2"><g id="Lag_1-2" data-name="Lag 1"><path class="cls-1" d="M367.67,490.54l52.9-96-26.45-30.86q13.22,15.44,26.45,30.86,9.18-19.23,18.38-38.45-9.19,19.21-18.38,38.45l42.89-7.6-42.89,7.6Q394.11,442.54,367.67,490.54Z"/><path class="cls-1" d="M96.23,490.54l-52.9-96,26.45-30.86L43.33,394.54,25,356.09l18.38,38.45L.44,386.94l42.89,7.6Q69.78,442.54,96.23,490.54Z"/><path class="cls-2" d="M361.35,666.34a162.19,162.19,0,0,0-77.41-252.71,108.38,108.38,0,1,0-102.33,0,162.19,162.19,0,0,0-77.4,252.71"/><circle class="cls-3" cx="262.21" cy="301.26" r="15.19"/><circle class="cls-3" cx="176.83" cy="356.09" r="7.6"/><circle class="cls-3" cx="192.02" cy="376.73" r="7.6"/><circle class="cls-3" cx="214.51" cy="386.94" r="7.6"/><circle class="cls-3" cx="237.43" cy="391.92" r="7.6"/><circle class="cls-3" cx="259.04" cy="384.32" r="7.6"/><circle class="cls-3" cx="232.78" cy="482.94" r="7.6"/><circle class="cls-3" cx="232.78" cy="546.26" r="7.6"/><circle class="cls-3" cx="232.78" cy="577.92" r="7.6"/><circle class="cls-3" cx="232.78" cy="603.64" r="7.6"/><circle class="cls-3" cx="232.78" cy="514.6" r="7.6"/><circle class="cls-3" cx="204.76" cy="301.26" r="15.19"/><polygon class="cls-4" points="232.78 323.62 232.78 350.43 310.91 350.43 232.78 323.62"/><path class="cls-3" d="M245,327.82v0Z"/><path class="cls-3" d="M256.63,331.8v0Z"/><path class="cls-3" d="M268.64,335.92v0Z"/><path class="cls-3" d="M280.65,340v0Z"/><path class="cls-3" d="M298.65,183.49V0a145.33,145.33,0,0,1-65.3,17.36A145.88,145.88,0,0,1,161,0V183.49H106.6V243.4H353.06V183.49Z"/></g></g></svg>