<svg xmlns="http://www.w3.org/2000/svg" viewBox="0 0 457.54 457.54"><defs><style>.cls-1{fill:#009fe3;}.cls-1,.cls-2{stroke:#fff;stroke-miterlimit:10;stroke-width:14px;}.cls-2{fill:none;}</style></defs><g id="Lag_2" data-name="Lag 2"><g id="Lag_1-2" data-name="Lag 1"><line class="cls-1" x1="228.77" y1="374.87" x2="228.77" y2="82.67"/><polyline class="cls-2" points="167.72 4.3 228.68 82.67 281.9 4.3"/><polyline class="cls-2" points="167.72 453.24 228.68 374.87 281.9 453.24"/><line class="cls-1" x1="374.87" y1="232.73" x2="82.67" y2="232.73"/><polyline class="cls-2" points="4.3 171.69 82.67 232.64 4.3 285.86"/><polyline class="cls-2" points="453.24 171.69 374.87 232.64 453.24 285.86"/><line class="cls-1" x1="134.65" y1="338.23" x2="335.73" y2="126.22"/><polyline class="cls-2" points="345.36 27.35 335.66 126.16 428.2 105.91"/><polyline class="cls-2" points="36.42 353.09 134.58 338.17 119.26 431.66"/><line class="cls-1" x1="338.47" y1="335.64" x2="126.45" y2="134.56"/><polyline class="cls-2" points="111.6 36.34 126.52 134.5 33.03 119.18"/><polyline class="cls-2" points="437.34 345.28 338.53 335.57 358.77 428.12"/></g></g></svg>